<svg xmlns="http://www.w3.org/2000/svg" viewBox="0 0 96 64" role="img" aria-label="もどる">
  <path d="M88 25c-4-6-11-6-17-3-10-8-33-9-54-9-7 0-12 4-12 10 0 7 5 11 13 11h21c-2 5-1 11 4 14 2 2 5 2 8 1 1 5 5 8 10 8 5 1 10-1 13-4 8 1 15-4 17-12 2-6 1-12-3-16Z" fill="#fff" stroke="#23344f" stroke-width="5" stroke-linejoin="round"/>
  <path d="M6 23c7 1 30 2 57 2" fill="none" stroke="#23344f" stroke-width="5" stroke-linecap="round"/>
  <path d="M63 25c-10 1-19 4-22 12-2 4 0 9 4 11 4 2 9-1 11-5l4-8h10" fill="#fff" stroke="#23344f" stroke-width="5" stroke-linecap="round" stroke-linejoin="round"/>
  <path d="M52 50c8 3 17 1 22-5" fill="none" stroke="#23344f" stroke-width="5" stroke-linecap="round"/>
  <path d="M72 22c5 4 8 10 8 17" fill="none" stroke="#23344f" stroke-width="5" stroke-linecap="round"/>
</svg>
