<svg xmlns="http://www.w3.org/2000/svg" width="1200" height="630" viewBox="0 0 1200 630" role="img" aria-label="はじめてのプログラミングにちょうせん Eash-Scratch">
  <defs>
    <linearGradient id="bg" x1="0" x2="1" y1="0" y2="1">
      <stop offset="0" stop-color="#fff7c8"/>
      <stop offset=".52" stop-color="#e6f8ff"/>
      <stop offset="1" stop-color="#ffe8f4"/>
    </linearGradient>
    <filter id="shadow" x="-20%" y="-20%" width="140%" height="140%">
      <feDropShadow dx="0" dy="10" stdDeviation="8" flood-color="#244b70" flood-opacity=".18"/>
    </filter>
  </defs>
  <rect width="1200" height="630" fill="url(#bg)"/>
  <g opacity=".28" stroke="#8cc9e8" stroke-width="1">
    <path d="M0 70H1200M0 140H1200M0 210H1200M0 280H1200M0 350H1200M0 420H1200M0 490H1200M0 560H1200"/>
    <path d="M70 0V630M140 0V630M210 0V630M280 0V630M350 0V630M420 0V630M490 0V630M560 0V630M630 0V630M700 0V630M770 0V630M840 0V630M910 0V630M980 0V630M1050 0V630M1120 0V630"/>
  </g>
  <circle cx="1050" cy="110" r="92" fill="#8bd7ff" opacity=".58"/>
  <circle cx="135" cy="130" r="86" fill="#ffe17a" opacity=".62"/>
  <g filter="url(#shadow)">
    <rect x="74" y="78" width="1052" height="474" rx="54" fill="#fff" stroke="#7fc4ec" stroke-width="8"/>
    <text x="600" y="175" text-anchor="middle" font-family="Hiragino Maru Gothic ProN, Yu Gothic, sans-serif" font-size="70" font-weight="900" fill="#0d2a63">はじめてのプログラミングに</text>
    <text x="600" y="255" text-anchor="middle" font-family="Hiragino Maru Gothic ProN, Yu Gothic, sans-serif" font-size="70" font-weight="900" fill="#0d2a63">ちょうせん</text>
    <rect x="210" y="302" width="780" height="74" rx="37" fill="#fff2a8" stroke="#f1b51d" stroke-width="5"/>
    <text x="600" y="351" text-anchor="middle" font-family="Hiragino Maru Gothic ProN, Yu Gothic, sans-serif" font-size="34" font-weight="900" fill="#0d2a63">ルールを作る → 小さく確かめる → くりかえす</text>
    <g transform="translate(240 410)">
      <rect width="210" height="82" rx="24" fill="#fff8e2" stroke="#ff6a7e" stroke-width="5"/>
      <text x="105" y="54" text-anchor="middle" font-size="34" font-weight="900" font-family="sans-serif" fill="#0d2a63">○+△=□</text>
    </g>
    <g transform="translate(495 410)">
      <rect width="210" height="82" rx="24" fill="#eef8ff" stroke="#2589db" stroke-width="5"/>
      <text x="105" y="54" text-anchor="middle" font-size="34" font-weight="900" font-family="sans-serif" fill="#0d2a63">➡️ 🏁</text>
    </g>
    <g transform="translate(750 410)">
      <rect width="210" height="82" rx="24" fill="#f1fff6" stroke="#20a365" stroke-width="5"/>
      <text x="105" y="54" text-anchor="middle" font-size="34" font-weight="900" font-family="sans-serif" fill="#0d2a63">🔁 × n</text>
    </g>
  </g>
</svg>
